<?xml version="1.0" standalone="no"?>
<!DOCTYPE svg PUBLIC "-//W3C//DTD SVG 20010904//EN"
 "http://www.w3.org/TR/2001/REC-SVG-20010904/DTD/svg10.dtd">
<svg version="1.0" xmlns="http://www.w3.org/2000/svg"
 width="225.000000pt" height="225.000000pt" viewBox="0 0 225.000000 225.000000"
 preserveAspectRatio="xMidYMid meet">
<metadata>
Created by potrace 1.10, written by Peter Selinger 2001-2011
</metadata>
<g transform="translate(0.000000,225.000000) scale(0.100000,-0.100000)"
fill="#000000" stroke="none">
<path d="M668 1901 l-447 -256 -1 -520 0 -520 448 -255 c246 -140 452 -255
457 -255 6 0 211 115 457 255 l448 255 0 520 -1 520 -446 255 c-246 140 -452
256 -457 256 -6 1 -212 -114 -458 -255z m892 -35 c228 -131 418 -243 422 -249
4 -7 8 -228 8 -493 0 -370 -3 -484 -12 -495 -14 -17 -840 -489 -854 -489 -5 1
-200 110 -434 243 l-425 243 0 498 0 499 425 243 c234 134 432 242 440 241 8
-2 202 -111 430 -241z"/>
<path d="M745 1825 c-198 -113 -373 -219 -388 -236 l-28 -30 3 -434 3 -435 25
-24 c34 -33 742 -446 765 -446 23 0 719 395 760 432 l30 26 3 441 3 440 -28
30 c-38 41 -737 441 -770 441 -10 0 -180 -92 -378 -205z m1135 -700 l0 -440
-378 -215 -378 -215 -224 132 c-124 73 -293 172 -377 220 l-152 88 -1 435 0
435 377 215 378 215 377 -215 378 -215 0 -440z"/>
<path d="M892 1565 l-78 -130 77 -125 76 -125 150 -3 151 -3 76 126 c42 70 76
128 76 130 0 2 -35 61 -77 132 l-78 128 -148 0 -147 0 -78 -130z m410 -25 l58
-102 -57 -104 -58 -104 -120 0 -120 0 -58 104 -57 104 59 103 60 104 117 -2
117 -2 59 -101z"/>
<path d="M596 1035 c-42 -69 -76 -128 -76 -131 0 -3 34 -63 76 -132 l76 -127
148 0 148 0 77 128 c42 70 78 127 80 127 2 0 38 -57 80 -127 l77 -128 148 0
148 0 76 127 c42 69 76 129 76 132 0 3 -34 62 -76 131 l-76 126 -151 -3 -151
-3 -71 -118 c-38 -65 -74 -119 -80 -119 -5 0 -41 53 -80 118 l-71 119 -151 3
-151 3 -76 -126z m407 -26 c31 -56 57 -104 56 -108 0 -3 -26 -50 -57 -104
l-57 -99 -125 0 -125 1 -58 102 c-32 56 -56 105 -55 108 2 4 28 51 58 104 l55
97 126 0 125 0 57 -101z m608 4 c30 -54 55 -100 57 -104 1 -3 -23 -52 -55
-108 l-58 -102 -125 0 -125 0 -58 102 c-32 56 -56 105 -55 108 2 4 27 50 57
104 l55 97 126 0 126 0 55 -97z"/>
</g>
</svg>
